<svg xmlns="http://www.w3.org/2000/svg" xmlns:xlink="http://www.w3.org/1999/xlink" width="250" zoomAndPan="magnify" viewBox="0 0 187.5 67.499998" height="90" preserveAspectRatio="xMidYMid meet" version="1.0"><defs><g/><clipPath id="9fec0f89a4"><path d="M 0.441406 0 L 186.5625 0 L 186.5625 67.003906 L 0.441406 67.003906 Z M 0.441406 0 " clip-rule="nonzero"/></clipPath><clipPath id="dde20f8e97"><path d="M 2.273438 16.886719 L 29 16.886719 L 29 45.464844 L 2.273438 45.464844 Z M 2.273438 16.886719 " clip-rule="nonzero"/></clipPath><clipPath id="cc65f45d0f"><path d="M 26.773438 43.007812 L 25.671875 43.007812 L 25.671875 32.070312 C 25.671875 31.828125 25.53125 31.484375 25.359375 31.316406 L 15.902344 21.859375 C 15.730469 21.683594 15.453125 21.683594 15.28125 21.859375 L 5.894531 31.246094 C 5.722656 31.417969 5.582031 31.753906 5.582031 31.996094 L 5.582031 43.007812 L 4.480469 43.007812 L 4.480469 30.976562 L 15.589844 19.863281 L 26.773438 31.046875 Z M 19.351562 34.199219 C 19.351562 34.375 19.203125 34.523438 19.027344 34.523438 L 16.125 34.523438 C 15.949219 34.523438 15.804688 34.375 15.804688 34.199219 L 15.804688 31.300781 C 15.804688 31.125 15.949219 30.976562 16.125 30.976562 L 19.027344 30.976562 C 19.207031 30.976562 19.351562 31.125 19.351562 31.300781 Z M 19.351562 38.078125 C 19.351562 38.253906 19.203125 38.398438 19.027344 38.398438 L 16.125 38.398438 C 15.949219 38.398438 15.804688 38.253906 15.804688 38.078125 L 15.804688 35.171875 C 15.804688 34.996094 15.949219 34.847656 16.125 34.847656 L 19.027344 34.847656 C 19.207031 34.847656 19.351562 34.996094 19.351562 35.171875 Z M 15.449219 34.199219 C 15.449219 34.375 15.300781 34.523438 15.125 34.523438 L 12.222656 34.523438 C 12.046875 34.523438 11.902344 34.375 11.902344 34.199219 L 11.902344 31.300781 C 11.902344 31.125 12.046875 30.976562 12.222656 30.976562 L 15.125 30.976562 C 15.304688 30.976562 15.449219 31.125 15.449219 31.300781 Z M 15.449219 38.078125 C 15.449219 38.253906 15.300781 38.398438 15.125 38.398438 L 12.222656 38.398438 C 12.046875 38.398438 11.902344 38.253906 11.902344 38.078125 L 11.902344 35.171875 C 11.902344 34.996094 12.046875 34.847656 12.222656 34.847656 L 15.125 34.847656 C 15.304688 34.847656 15.449219 34.996094 15.449219 35.171875 Z M 28.941406 30.0625 C 28.921875 30.0625 28.765625 29.921875 28.59375 29.75 L 15.902344 17.058594 C 15.730469 16.886719 15.453125 16.886719 15.28125 17.058594 L 2.585938 29.75 C 2.414062 29.921875 2.273438 30.257812 2.273438 30.503906 L 2.273438 44.769531 C 2.273438 45.011719 2.472656 45.210938 2.710938 45.210938 L 11.898438 45.210938 L 11.898438 43.011719 L 19.351562 43.011719 L 19.351562 45.214844 L 28.535156 45.214844 C 28.777344 45.214844 28.976562 45.015625 28.976562 44.773438 L 28.976562 30.503906 C 28.976562 30.261719 28.960938 30.066406 28.9375 30.066406 " clip-rule="nonzero"/></clipPath><clipPath id="3ba474f4c1"><path d="M 2.640625 17.253906 L 28.652344 17.253906 L 28.652344 45 L 2.640625 45 Z M 2.640625 17.253906 " clip-rule="nonzero"/></clipPath><clipPath id="ad792500f0"><path d="M 15.625 38.609375 C 15.753906 38.734375 15.933594 38.804688 16.125 38.804688 L 19.027344 38.804688 C 19.429688 38.804688 19.761719 38.476562 19.761719 38.074219 L 19.761719 35.171875 C 19.761719 34.984375 19.691406 34.8125 19.574219 34.683594 C 19.691406 34.554688 19.761719 34.382812 19.761719 34.199219 L 19.761719 31.300781 C 19.761719 30.894531 19.429688 30.566406 19.027344 30.566406 L 16.125 30.566406 C 15.933594 30.566406 15.753906 30.640625 15.625 30.765625 C 15.492188 30.640625 15.316406 30.566406 15.121094 30.566406 L 12.222656 30.566406 C 11.820312 30.566406 11.492188 30.894531 11.492188 31.300781 L 11.492188 34.199219 C 11.492188 34.386719 11.5625 34.554688 11.679688 34.6875 C 11.5625 34.816406 11.492188 34.988281 11.492188 35.175781 L 11.492188 38.078125 C 11.492188 38.480469 11.820312 38.808594 12.222656 38.808594 L 15.125 38.808594 C 15.320312 38.808594 15.496094 38.734375 15.628906 38.613281 M 15.589844 22.140625 C 15.601562 22.140625 15.609375 22.144531 15.613281 22.148438 L 25.070312 31.601562 C 25.164062 31.699219 25.257812 31.933594 25.257812 32.070312 L 25.257812 43.417969 L 27.179688 43.417969 L 27.179688 30.878906 L 15.589844 19.285156 L 4.066406 30.804688 L 4.066406 43.417969 L 5.988281 43.417969 L 5.988281 31.996094 C 5.988281 31.859375 6.082031 31.625 6.179688 31.53125 L 15.566406 22.148438 C 15.574219 22.140625 15.578125 22.140625 15.585938 22.140625 M 19.761719 44.804688 L 19.761719 42.601562 L 11.492188 42.601562 L 11.492188 44.804688 L 2.710938 44.804688 C 2.699219 44.804688 2.679688 44.789062 2.679688 44.769531 L 2.679688 30.503906 C 2.679688 30.367188 2.773438 30.132812 2.871094 30.039062 L 15.566406 17.347656 C 15.574219 17.339844 15.578125 17.339844 15.585938 17.339844 C 15.59375 17.339844 15.605469 17.34375 15.609375 17.347656 L 28.304688 30.039062 C 28.410156 30.144531 28.496094 30.226562 28.566406 30.285156 C 28.566406 30.339844 28.566406 30.414062 28.566406 30.5 L 28.566406 44.769531 C 28.566406 44.785156 28.554688 44.804688 28.535156 44.804688 Z M 19.761719 44.804688 " clip-rule="nonzero"/></clipPath><clipPath id="5b49674c03"><path d="M 5.203125 19.449219 L 9.234375 19.449219 L 9.234375 26 L 5.203125 26 Z M 5.203125 19.449219 " clip-rule="nonzero"/></clipPath><clipPath id="e2fd36824b"><path d="M 9.097656 22.414062 L 9.097656 20.175781 C 9.097656 19.953125 8.914062 19.765625 8.6875 19.765625 L 5.976562 19.765625 C 5.753906 19.765625 5.566406 19.949219 5.566406 20.175781 L 5.566406 25.945312 Z M 9.097656 22.414062 " clip-rule="nonzero"/></clipPath><clipPath id="97698f6186"><path d="M 5.9375 20 L 8.867188 20 L 8.867188 25 L 5.9375 25 Z M 5.9375 20 " clip-rule="nonzero"/></clipPath><clipPath id="d7bd101deb"><path d="M 5.980469 20.175781 L 8.691406 20.175781 L 8.691406 22.246094 L 5.980469 24.957031 Z M 5.980469 20.175781 " clip-rule="nonzero"/></clipPath></defs><g clip-path="url(#9fec0f89a4)"><path fill="#ffffff" d="M 0.441406 0 L 187.058594 0 L 187.058594 73.902344 L 0.441406 73.902344 Z M 0.441406 0 " fill-opacity="1" fill-rule="nonzero"/><path fill="#ffffff" d="M 0.441406 0 L 187.058594 0 L 187.058594 67.183594 L 0.441406 67.183594 Z M 0.441406 0 " fill-opacity="1" fill-rule="nonzero"/><path fill="#ffffff" d="M 0.441406 0 L 187.058594 0 L 187.058594 67.183594 L 0.441406 67.183594 Z M 0.441406 0 " fill-opacity="1" fill-rule="nonzero"/></g><g clip-path="url(#dde20f8e97)"><g clip-path="url(#cc65f45d0f)"><path fill="#004aad" d="M 0.441406 15.054688 L 30.851562 15.054688 L 30.851562 46.929688 L 0.441406 46.929688 Z M 0.441406 15.054688 " fill-opacity="1" fill-rule="nonzero"/></g></g><g clip-path="url(#3ba474f4c1)"><g clip-path="url(#ad792500f0)"><path fill="#5271ff" d="M 0.441406 15.054688 L 30.851562 15.054688 L 30.851562 46.929688 L 0.441406 46.929688 Z M 0.441406 15.054688 " fill-opacity="1" fill-rule="nonzero"/></g></g><g clip-path="url(#5b49674c03)"><g clip-path="url(#e2fd36824b)"><path fill="#004aad" d="M 0.441406 15.054688 L 30.851562 15.054688 L 30.851562 46.929688 L 0.441406 46.929688 Z M 0.441406 15.054688 " fill-opacity="1" fill-rule="nonzero"/></g></g><g clip-path="url(#97698f6186)"><g clip-path="url(#d7bd101deb)"><path fill="#5271ff" d="M 0.441406 15.054688 L 30.851562 15.054688 L 30.851562 46.929688 L 0.441406 46.929688 Z M 0.441406 15.054688 " fill-opacity="1" fill-rule="nonzero"/></g></g><g fill="#000000" fill-opacity="1"><g transform="translate(29.619321, 43.931689)"><g><path d="M 7.09375 -6.75 L 5.078125 -4.296875 L 5.078125 0 L 1.703125 0 L 1.703125 -15.484375 L 5.078125 -15.484375 L 5.078125 -8.125 L 5.21875 -8.125 L 7.40625 -11.109375 L 10.890625 -15.484375 L 14.703125 -15.484375 L 9.5 -9.125 L 15.171875 0 L 11.203125 0 Z M 7.09375 -6.75 "/></g></g></g><g fill="#000000" fill-opacity="1"><g transform="translate(45.058586, 43.931689)"><g><path d="M 1.53125 -16.421875 L 4.8125 -16.421875 L 4.8125 -9.671875 L 4.953125 -9.671875 C 5.160156 -10.273438 5.519531 -10.800781 6.03125 -11.25 C 6.550781 -11.695312 7.269531 -11.921875 8.1875 -11.921875 C 9.382812 -11.921875 10.289062 -11.519531 10.90625 -10.71875 C 11.519531 -9.914062 11.828125 -8.773438 11.828125 -7.296875 L 11.828125 0 L 8.546875 0 L 8.546875 -7.03125 C 8.546875 -7.789062 8.425781 -8.347656 8.1875 -8.703125 C 7.945312 -9.066406 7.523438 -9.25 6.921875 -9.25 C 6.648438 -9.25 6.390625 -9.210938 6.140625 -9.140625 C 5.890625 -9.078125 5.664062 -8.972656 5.46875 -8.828125 C 5.269531 -8.679688 5.109375 -8.5 4.984375 -8.28125 C 4.867188 -8.070312 4.8125 -7.828125 4.8125 -7.546875 L 4.8125 0 L 1.53125 0 Z M 1.53125 -16.421875 "/></g></g></g><g fill="#000000" fill-opacity="1"><g transform="translate(58.279567, 43.931689)"><g><path d="M 10.140625 0 C 9.546875 0 9.050781 -0.179688 8.65625 -0.546875 C 8.269531 -0.921875 8.023438 -1.421875 7.921875 -2.046875 L 7.78125 -2.046875 C 7.601562 -1.285156 7.210938 -0.707031 6.609375 -0.3125 C 6.003906 0.0703125 5.257812 0.265625 4.375 0.265625 C 3.207031 0.265625 2.3125 -0.0390625 1.6875 -0.65625 C 1.0625 -1.28125 0.75 -2.101562 0.75 -3.125 C 0.75 -4.351562 1.195312 -5.265625 2.09375 -5.859375 C 2.988281 -6.460938 4.207031 -6.765625 5.75 -6.765625 L 7.59375 -6.765625 L 7.59375 -7.5 C 7.59375 -8.0625 7.441406 -8.507812 7.140625 -8.84375 C 6.847656 -9.175781 6.351562 -9.34375 5.65625 -9.34375 C 5.007812 -9.34375 4.492188 -9.203125 4.109375 -8.921875 C 3.722656 -8.640625 3.40625 -8.320312 3.15625 -7.96875 L 1.203125 -9.703125 C 1.671875 -10.390625 2.265625 -10.929688 2.984375 -11.328125 C 3.703125 -11.722656 4.675781 -11.921875 5.90625 -11.921875 C 7.5625 -11.921875 8.800781 -11.554688 9.625 -10.828125 C 10.457031 -10.097656 10.875 -9.039062 10.875 -7.65625 L 10.875 -2.546875 L 11.953125 -2.546875 L 11.953125 0 Z M 5.59375 -2.015625 C 6.132812 -2.015625 6.601562 -2.132812 7 -2.375 C 7.394531 -2.613281 7.59375 -3 7.59375 -3.53125 L 7.59375 -4.90625 L 5.984375 -4.90625 C 4.703125 -4.90625 4.0625 -4.46875 4.0625 -3.59375 L 4.0625 -3.265625 C 4.0625 -2.835938 4.191406 -2.519531 4.453125 -2.3125 C 4.722656 -2.113281 5.101562 -2.015625 5.59375 -2.015625 Z M 5.59375 -2.015625 "/></g></g></g><g fill="#000000" fill-opacity="1"><g transform="translate(70.901614, 43.931689)"><g><path d="M 8.65625 -11.640625 L 11.71875 -11.640625 L 7.234375 1.796875 C 6.941406 2.703125 6.523438 3.367188 5.984375 3.796875 C 5.441406 4.222656 4.664062 4.4375 3.65625 4.4375 L 1.625 4.4375 L 1.625 1.890625 L 3.8125 1.890625 L 4.21875 0.59375 L 0.140625 -11.640625 L 3.390625 -11.640625 L 5.109375 -6.21875 L 5.953125 -2.84375 L 6.078125 -2.84375 L 6.9375 -6.21875 Z M 8.65625 -11.640625 "/></g></g></g><g fill="#000000" fill-opacity="1"><g transform="translate(82.747255, 43.931689)"><g><path d="M 10.140625 0 C 9.546875 0 9.050781 -0.179688 8.65625 -0.546875 C 8.269531 -0.921875 8.023438 -1.421875 7.921875 -2.046875 L 7.78125 -2.046875 C 7.601562 -1.285156 7.210938 -0.707031 6.609375 -0.3125 C 6.003906 0.0703125 5.257812 0.265625 4.375 0.265625 C 3.207031 0.265625 2.3125 -0.0390625 1.6875 -0.65625 C 1.0625 -1.28125 0.75 -2.101562 0.75 -3.125 C 0.75 -4.351562 1.195312 -5.265625 2.09375 -5.859375 C 2.988281 -6.460938 4.207031 -6.765625 5.75 -6.765625 L 7.59375 -6.765625 L 7.59375 -7.5 C 7.59375 -8.0625 7.441406 -8.507812 7.140625 -8.84375 C 6.847656 -9.175781 6.351562 -9.34375 5.65625 -9.34375 C 5.007812 -9.34375 4.492188 -9.203125 4.109375 -8.921875 C 3.722656 -8.640625 3.40625 -8.320312 3.15625 -7.96875 L 1.203125 -9.703125 C 1.671875 -10.390625 2.265625 -10.929688 2.984375 -11.328125 C 3.703125 -11.722656 4.675781 -11.921875 5.90625 -11.921875 C 7.5625 -11.921875 8.800781 -11.554688 9.625 -10.828125 C 10.457031 -10.097656 10.875 -9.039062 10.875 -7.65625 L 10.875 -2.546875 L 11.953125 -2.546875 L 11.953125 0 Z M 5.59375 -2.015625 C 6.132812 -2.015625 6.601562 -2.132812 7 -2.375 C 7.394531 -2.613281 7.59375 -3 7.59375 -3.53125 L 7.59375 -4.90625 L 5.984375 -4.90625 C 4.703125 -4.90625 4.0625 -4.46875 4.0625 -3.59375 L 4.0625 -3.265625 C 4.0625 -2.835938 4.191406 -2.519531 4.453125 -2.3125 C 4.722656 -2.113281 5.101562 -2.015625 5.59375 -2.015625 Z M 5.59375 -2.015625 "/></g></g></g><g fill="#000000" fill-opacity="1"><g transform="translate(95.369302, 43.931689)"><g><path d="M 12.21875 0 L 1.265625 0 L 1.265625 -3.046875 L 6.03125 -7.125 C 6.457031 -7.488281 6.816406 -7.820312 7.109375 -8.125 C 7.410156 -8.4375 7.65625 -8.734375 7.84375 -9.015625 C 8.03125 -9.304688 8.160156 -9.59375 8.234375 -9.875 C 8.316406 -10.15625 8.359375 -10.457031 8.359375 -10.78125 L 8.359375 -11.09375 C 8.359375 -11.382812 8.300781 -11.640625 8.1875 -11.859375 C 8.070312 -12.085938 7.914062 -12.273438 7.71875 -12.421875 C 7.53125 -12.566406 7.3125 -12.675781 7.0625 -12.75 C 6.820312 -12.832031 6.578125 -12.875 6.328125 -12.875 C 5.953125 -12.875 5.628906 -12.8125 5.359375 -12.6875 C 5.085938 -12.570312 4.847656 -12.414062 4.640625 -12.21875 C 4.441406 -12.019531 4.273438 -11.789062 4.140625 -11.53125 C 4.015625 -11.269531 3.914062 -10.988281 3.84375 -10.6875 L 0.9375 -11.796875 C 1.113281 -12.335938 1.351562 -12.847656 1.65625 -13.328125 C 1.96875 -13.804688 2.359375 -14.222656 2.828125 -14.578125 C 3.296875 -14.941406 3.847656 -15.226562 4.484375 -15.4375 C 5.117188 -15.644531 5.835938 -15.75 6.640625 -15.75 C 7.484375 -15.75 8.226562 -15.628906 8.875 -15.390625 C 9.519531 -15.160156 10.066406 -14.835938 10.515625 -14.421875 C 10.972656 -14.003906 11.320312 -13.507812 11.5625 -12.9375 C 11.800781 -12.375 11.921875 -11.757812 11.921875 -11.09375 C 11.921875 -10.425781 11.804688 -9.816406 11.578125 -9.265625 C 11.359375 -8.722656 11.0625 -8.210938 10.6875 -7.734375 C 10.3125 -7.253906 9.867188 -6.796875 9.359375 -6.359375 C 8.859375 -5.929688 8.332031 -5.5 7.78125 -5.0625 L 4.90625 -2.796875 L 12.21875 -2.796875 Z M 12.21875 0 "/></g></g></g><g fill="#000000" fill-opacity="1"><g transform="translate(108.679009, 43.931689)"><g><path d="M 6.75 0.265625 C 5.832031 0.265625 5.007812 0.125 4.28125 -0.15625 C 3.550781 -0.445312 2.9375 -0.863281 2.4375 -1.40625 C 1.945312 -1.945312 1.570312 -2.59375 1.3125 -3.34375 C 1.0625 -4.101562 0.9375 -4.945312 0.9375 -5.875 C 0.9375 -6.957031 1.101562 -7.984375 1.4375 -8.953125 C 1.769531 -9.921875 2.195312 -10.816406 2.71875 -11.640625 C 3.238281 -12.460938 3.828125 -13.195312 4.484375 -13.84375 C 5.148438 -14.5 5.816406 -15.046875 6.484375 -15.484375 L 11.078125 -15.484375 C 10.128906 -14.804688 9.273438 -14.160156 8.515625 -13.546875 C 7.765625 -12.929688 7.109375 -12.3125 6.546875 -11.6875 C 5.992188 -11.070312 5.535156 -10.441406 5.171875 -9.796875 C 4.816406 -9.148438 4.566406 -8.457031 4.421875 -7.71875 L 4.609375 -7.65625 C 4.742188 -7.945312 4.90625 -8.234375 5.09375 -8.515625 C 5.28125 -8.796875 5.507812 -9.039062 5.78125 -9.25 C 6.050781 -9.46875 6.367188 -9.644531 6.734375 -9.78125 C 7.109375 -9.914062 7.539062 -9.984375 8.03125 -9.984375 C 8.664062 -9.984375 9.257812 -9.867188 9.8125 -9.640625 C 10.375 -9.410156 10.859375 -9.085938 11.265625 -8.671875 C 11.671875 -8.253906 11.988281 -7.742188 12.21875 -7.140625 C 12.445312 -6.546875 12.5625 -5.890625 12.5625 -5.171875 C 12.5625 -4.367188 12.421875 -3.632812 12.140625 -2.96875 C 11.867188 -2.300781 11.476562 -1.726562 10.96875 -1.25 C 10.457031 -0.769531 9.847656 -0.394531 9.140625 -0.125 C 8.429688 0.132812 7.632812 0.265625 6.75 0.265625 Z M 6.75 -2.328125 C 7.488281 -2.328125 8.0625 -2.53125 8.46875 -2.9375 C 8.882812 -3.34375 9.09375 -3.925781 9.09375 -4.6875 L 9.09375 -5.078125 C 9.09375 -5.835938 8.882812 -6.421875 8.46875 -6.828125 C 8.0625 -7.234375 7.488281 -7.4375 6.75 -7.4375 C 6.007812 -7.4375 5.429688 -7.234375 5.015625 -6.828125 C 4.597656 -6.421875 4.390625 -5.835938 4.390625 -5.078125 L 4.390625 -4.6875 C 4.390625 -3.925781 4.597656 -3.34375 5.015625 -2.9375 C 5.429688 -2.53125 6.007812 -2.328125 6.75 -2.328125 Z M 6.75 -2.328125 "/></g></g></g><g fill="#000000" fill-opacity="1"><g transform="translate(121.988716, 43.931689)"><g><path d="M 11.578125 -12.578125 L 4.546875 -12.578125 L 4.21875 -7.671875 L 4.390625 -7.671875 C 4.535156 -8.046875 4.703125 -8.382812 4.890625 -8.6875 C 5.078125 -8.988281 5.296875 -9.242188 5.546875 -9.453125 C 5.796875 -9.671875 6.097656 -9.835938 6.453125 -9.953125 C 6.804688 -10.078125 7.226562 -10.140625 7.71875 -10.140625 C 8.382812 -10.140625 9.003906 -10.023438 9.578125 -9.796875 C 10.160156 -9.578125 10.664062 -9.253906 11.09375 -8.828125 C 11.519531 -8.410156 11.859375 -7.894531 12.109375 -7.28125 C 12.359375 -6.675781 12.484375 -5.988281 12.484375 -5.21875 C 12.484375 -4.425781 12.351562 -3.691406 12.09375 -3.015625 C 11.84375 -2.347656 11.460938 -1.769531 10.953125 -1.28125 C 10.441406 -0.789062 9.816406 -0.410156 9.078125 -0.140625 C 8.335938 0.128906 7.492188 0.265625 6.546875 0.265625 C 5.785156 0.265625 5.117188 0.179688 4.546875 0.015625 C 3.972656 -0.140625 3.460938 -0.351562 3.015625 -0.625 C 2.578125 -0.90625 2.191406 -1.222656 1.859375 -1.578125 C 1.535156 -1.929688 1.253906 -2.304688 1.015625 -2.703125 L 3.4375 -4.609375 C 3.78125 -4.003906 4.1875 -3.488281 4.65625 -3.0625 C 5.132812 -2.644531 5.769531 -2.4375 6.5625 -2.4375 C 7.363281 -2.4375 7.96875 -2.664062 8.375 -3.125 C 8.78125 -3.582031 8.984375 -4.191406 8.984375 -4.953125 L 8.984375 -5.125 C 8.984375 -5.832031 8.773438 -6.394531 8.359375 -6.8125 C 7.953125 -7.226562 7.382812 -7.4375 6.65625 -7.4375 C 6.050781 -7.4375 5.550781 -7.3125 5.15625 -7.0625 C 4.769531 -6.820312 4.472656 -6.582031 4.265625 -6.34375 L 1.53125 -6.71875 L 2.109375 -15.484375 L 11.578125 -15.484375 Z M 11.578125 -12.578125 "/></g></g></g><g fill="#000000" fill-opacity="1"><g transform="translate(135.298423, 43.931689)"><g><path d="M 3.4375 0.25 C 2.769531 0.25 2.273438 0.0820312 1.953125 -0.25 C 1.640625 -0.582031 1.484375 -1.007812 1.484375 -1.53125 L 1.484375 -1.96875 C 1.484375 -2.488281 1.640625 -2.914062 1.953125 -3.25 C 2.273438 -3.582031 2.769531 -3.75 3.4375 -3.75 C 4.101562 -3.75 4.59375 -3.582031 4.90625 -3.25 C 5.226562 -2.914062 5.390625 -2.488281 5.390625 -1.96875 L 5.390625 -1.53125 C 5.390625 -1.007812 5.226562 -0.582031 4.90625 -0.25 C 4.59375 0.0820312 4.101562 0.25 3.4375 0.25 Z M 3.4375 0.25 "/></g></g></g><g fill="#5271ff" fill-opacity="1"><g transform="translate(142.17293, 43.931689)"><g><path d="M 6.234375 0.265625 C 5.359375 0.265625 4.582031 0.125 3.90625 -0.15625 C 3.226562 -0.445312 2.660156 -0.851562 2.203125 -1.375 C 1.742188 -1.90625 1.394531 -2.546875 1.15625 -3.296875 C 0.914062 -4.054688 0.796875 -4.898438 0.796875 -5.828125 C 0.796875 -6.765625 0.914062 -7.601562 1.15625 -8.34375 C 1.394531 -9.09375 1.742188 -9.734375 2.203125 -10.265625 C 2.660156 -10.804688 3.226562 -11.21875 3.90625 -11.5 C 4.582031 -11.78125 5.359375 -11.921875 6.234375 -11.921875 C 7.421875 -11.921875 8.410156 -11.648438 9.203125 -11.109375 C 9.992188 -10.578125 10.554688 -9.832031 10.890625 -8.875 L 8.234375 -7.71875 C 8.128906 -8.164062 7.910156 -8.539062 7.578125 -8.84375 C 7.253906 -9.15625 6.804688 -9.3125 6.234375 -9.3125 C 5.566406 -9.3125 5.0625 -9.09375 4.71875 -8.65625 C 4.382812 -8.226562 4.21875 -7.644531 4.21875 -6.90625 L 4.21875 -4.71875 C 4.21875 -3.976562 4.382812 -3.394531 4.71875 -2.96875 C 5.0625 -2.539062 5.566406 -2.328125 6.234375 -2.328125 C 6.828125 -2.328125 7.296875 -2.484375 7.640625 -2.796875 C 7.992188 -3.117188 8.25 -3.539062 8.40625 -4.0625 L 10.953125 -2.953125 C 10.578125 -1.835938 9.984375 -1.019531 9.171875 -0.5 C 8.367188 0.0078125 7.390625 0.265625 6.234375 0.265625 Z M 6.234375 0.265625 "/></g></g></g><g fill="#5271ff" fill-opacity="1"><g transform="translate(153.641462, 43.931689)"><g><path d="M 6.25 0.265625 C 5.394531 0.265625 4.628906 0.125 3.953125 -0.15625 C 3.285156 -0.4375 2.71875 -0.84375 2.25 -1.375 C 1.78125 -1.90625 1.421875 -2.546875 1.171875 -3.296875 C 0.921875 -4.054688 0.796875 -4.898438 0.796875 -5.828125 C 0.796875 -6.765625 0.921875 -7.609375 1.171875 -8.359375 C 1.421875 -9.117188 1.78125 -9.757812 2.25 -10.28125 C 2.71875 -10.8125 3.285156 -11.21875 3.953125 -11.5 C 4.628906 -11.78125 5.394531 -11.921875 6.25 -11.921875 C 7.113281 -11.921875 7.878906 -11.78125 8.546875 -11.5 C 9.222656 -11.21875 9.789062 -10.8125 10.25 -10.28125 C 10.71875 -9.757812 11.078125 -9.117188 11.328125 -8.359375 C 11.585938 -7.609375 11.71875 -6.765625 11.71875 -5.828125 C 11.71875 -4.898438 11.585938 -4.054688 11.328125 -3.296875 C 11.078125 -2.546875 10.71875 -1.90625 10.25 -1.375 C 9.789062 -0.84375 9.222656 -0.4375 8.546875 -0.15625 C 7.878906 0.125 7.113281 0.265625 6.25 0.265625 Z M 6.25 -2.328125 C 6.90625 -2.328125 7.410156 -2.523438 7.765625 -2.921875 C 8.117188 -3.328125 8.296875 -3.898438 8.296875 -4.640625 L 8.296875 -7.015625 C 8.296875 -7.753906 8.117188 -8.320312 7.765625 -8.71875 C 7.410156 -9.113281 6.90625 -9.3125 6.25 -9.3125 C 5.601562 -9.3125 5.101562 -9.113281 4.75 -8.71875 C 4.394531 -8.320312 4.21875 -7.753906 4.21875 -7.015625 L 4.21875 -4.640625 C 4.21875 -3.898438 4.394531 -3.328125 4.75 -2.921875 C 5.101562 -2.523438 5.601562 -2.328125 6.25 -2.328125 Z M 6.25 -2.328125 "/></g></g></g><g fill="#5271ff" fill-opacity="1"><g transform="translate(166.152586, 43.931689)"><g><path d="M 1.53125 0 L 1.53125 -11.640625 L 4.8125 -11.640625 L 4.8125 -9.671875 L 4.953125 -9.671875 C 5.160156 -10.296875 5.515625 -10.828125 6.015625 -11.265625 C 6.515625 -11.703125 7.203125 -11.921875 8.078125 -11.921875 C 8.878906 -11.921875 9.554688 -11.71875 10.109375 -11.3125 C 10.671875 -10.914062 11.082031 -10.332031 11.34375 -9.5625 L 11.40625 -9.5625 C 11.507812 -9.882812 11.664062 -10.191406 11.875 -10.484375 C 12.09375 -10.773438 12.359375 -11.019531 12.671875 -11.21875 C 12.984375 -11.425781 13.328125 -11.59375 13.703125 -11.71875 C 14.085938 -11.851562 14.503906 -11.921875 14.953125 -11.921875 C 16.078125 -11.921875 16.9375 -11.519531 17.53125 -10.71875 C 18.132812 -9.914062 18.4375 -8.773438 18.4375 -7.296875 L 18.4375 0 L 15.15625 0 L 15.15625 -7.03125 C 15.15625 -8.507812 14.625 -9.25 13.5625 -9.25 C 13.070312 -9.25 12.625 -9.109375 12.21875 -8.828125 C 11.820312 -8.546875 11.625 -8.117188 11.625 -7.546875 L 11.625 0 L 8.34375 0 L 8.34375 -7.03125 C 8.34375 -8.507812 7.8125 -9.25 6.75 -9.25 C 6.507812 -9.25 6.273438 -9.210938 6.046875 -9.140625 C 5.816406 -9.078125 5.609375 -8.972656 5.421875 -8.828125 C 5.234375 -8.679688 5.082031 -8.5 4.96875 -8.28125 C 4.863281 -8.070312 4.8125 -7.828125 4.8125 -7.546875 L 4.8125 0 Z M 1.53125 0 "/></g></g></g></svg>